<svg xmlns="http://www.w3.org/2000/svg" viewBox="0 0 64 64" role="img" aria-label="Bocsa Tech">
  <g fill="#ea580c">
    <path
      fill-rule="evenodd"
      d="M32 9 37.8 13 44.8 11 48.5 17 55.5 17 58.5 24 63.5 28 61.5 35 63.5 41 58.5 45 55.5 52 48.5 52 44.8 58 37.8 56 32 60 26.2 56 19.2 58 15.5 52 8.5 52 5.5 45 0.5 41 2.5 35 0.5 28 5.5 24 8.5 17 15.5 17 19.2 11 26.2 13 Z
         M32 22a10 10 0 1 0 0.01 0Z"
    />
    <text
      x="32"
      y="40"
      text-anchor="middle"
      font-family="system-ui, Segoe UI, sans-serif"
      font-size="21"
      font-weight="800"
      fill="#ea580c"
    >B</text>
  </g>
</svg>
