<svg xmlns="http://www.w3.org/2000/svg" viewBox="0 0 512 512" role="img" aria-label="Bocsa Tech">
  <defs>
    <linearGradient id="bocsa-bg" x1="256" y1="32" x2="256" y2="480" gradientUnits="userSpaceOnUse">
      <stop offset="0" stop-color="#ff7a1a"/>
      <stop offset="0.55" stop-color="#e85d04"/>
      <stop offset="1" stop-color="#dc4f03"/>
    </linearGradient>
  </defs>
  <rect width="512" height="512" rx="96" fill="url(#bocsa-bg)"/>
  <g fill="#ffffff">
    <path
      fill-rule="evenodd"
      d="M256 72 302 104 358 88 392 136 448 136 472 192 520 224 504 280 536 328 504 376 472 432 416 432 392 480 336 496 302 448 256 480 210 448 176 496 120 480 96 432 40 432 16 376 48 328 16 280 48 224 96 192 120 136 176 136 200 88 210 104 Z
         M256 176a80 80 0 1 0 0.01 0Z"
    />
    <text
      x="256"
      y="318"
      text-anchor="middle"
      font-family="system-ui, Segoe UI, sans-serif"
      font-size="168"
      font-weight="800"
      fill="#ffffff"
    >B</text>
  </g>
</svg>
