<?xml version="1.0" encoding="UTF-8"?>
<svg xmlns="http://www.w3.org/2000/svg" viewBox="0 0 920 200" role="img" aria-label="PDCA-Zyklus auf Deutsch">
  <defs>
    <filter id="shadow" x="-20%" y="-20%" width="140%" height="140%">
      <feDropShadow dx="0" dy="2" stdDeviation="3" flood-opacity="0.15"/>
    </filter>
    <marker id="arrow" markerWidth="10" markerHeight="10" refX="8" refY="5" orient="auto">
      <path d="M0,0 L10,5 L0,10 Z" fill="#111"/>
    </marker>
  </defs>
  <rect width="920" height="200" fill="#000"/>
  <g transform="translate(20,10)" filter="url(#shadow)">
    <circle cx="70" cy="70" r="68" fill="#38bdf8"/>
    <circle cx="70" cy="70" r="52" fill="#0ea5e9"/>
    <g transform="translate(70,70)" fill="#fff">
      <path d="M-18-22h36v44h-36z"/>
      <path d="M-12-16h24v4h-24zm0 10h18v4h-18zm0 10h22v4h-22z" fill="#0ea5e9"/>
    </g>
    <text x="70" y="158" text-anchor="middle" font-family="system-ui,sans-serif" font-size="18" font-weight="800" fill="#fff">PLAN</text>
    <text x="70" y="178" text-anchor="middle" font-family="system-ui,sans-serif" font-size="13" font-weight="600" fill="#d1d5db">Planung</text>
  </g>
  <path d="M168 80h72" stroke="#fff" stroke-width="3" marker-end="url(#arrow)"/>
  <g transform="translate(260,10)" filter="url(#shadow)">
    <circle cx="70" cy="70" r="68" fill="#4ade80"/>
    <circle cx="70" cy="70" r="52" fill="#22c55e"/>
    <g transform="translate(70,70)" fill="#fff">
      <path d="M-8 8l-12 12 4 4 12-12z"/>
      <rect x="-4" y="-18" width="8" height="28" rx="2" transform="rotate(-45)"/>
    </g>
    <text x="70" y="158" text-anchor="middle" font-family="system-ui,sans-serif" font-size="18" font-weight="800" fill="#fff">DO</text>
    <text x="70" y="178" text-anchor="middle" font-family="system-ui,sans-serif" font-size="13" font-weight="600" fill="#d1d5db">Umsetzung</text>
  </g>
  <path d="M408 80h72" stroke="#fff" stroke-width="3" marker-end="url(#arrow)"/>
  <g transform="translate(500,10)" filter="url(#shadow)">
    <circle cx="70" cy="70" r="68" fill="#fbbf24"/>
    <circle cx="70" cy="70" r="52" fill="#f59e0b"/>
    <g transform="translate(70,70)" fill="none" stroke="#fff" stroke-width="5">
      <circle cx="-2" cy="-2" r="16"/>
      <path d="M8 8l14 14" stroke-linecap="round"/>
    </g>
    <text x="70" y="158" text-anchor="middle" font-family="system-ui,sans-serif" font-size="18" font-weight="800" fill="#fff">CHECK</text>
    <text x="70" y="178" text-anchor="middle" font-family="system-ui,sans-serif" font-size="13" font-weight="600" fill="#d1d5db">Überprüfung</text>
  </g>
  <path d="M648 80h72" stroke="#fff" stroke-width="3" marker-end="url(#arrow)"/>
  <g transform="translate(740,10)" filter="url(#shadow)">
    <circle cx="70" cy="70" r="68" fill="#f87171"/>
    <circle cx="70" cy="70" r="52" fill="#ef4444"/>
    <g transform="translate(70,70)" fill="none" stroke="#fff" stroke-width="5" stroke-linecap="round">
      <path d="M0-14a14 14 0 1 1 0 28"/>
      <path d="M10-10l4-4M-10 10l-4 4M10 10l4 4M-10-10l-4-4"/>
    </g>
    <text x="70" y="158" text-anchor="middle" font-family="system-ui,sans-serif" font-size="18" font-weight="800" fill="#fff">ACT</text>
    <text x="70" y="178" text-anchor="middle" font-family="system-ui,sans-serif" font-size="13" font-weight="600" fill="#d1d5db">Verbesserung</text>
  </g>
</svg>
